<svg width="400" height="107" viewBox="0 0 400 107" fill="none" xmlns="http://www.w3.org/2000/svg">
<path d="M1.72412 105.302L44.8276 3.39683L87.931 105.302" stroke="white" stroke-width="2"/>
<path d="M128.448 77.2778L105.172 104.452H191.379" stroke="white" stroke-width="2"/>
<path d="M168.103 30.5714L191.379 3.39683H105.172" stroke="white" stroke-width="2"/>
<path d="M231.897 77.2778L208.621 104.452H294.828" stroke="white" stroke-width="2"/>
<path d="M271.552 30.5714L294.828 3.39683H208.621" stroke="white" stroke-width="2"/>
<path d="M312.069 105.302L355.172 3.39683L398.276 105.302" stroke="white" stroke-width="2"/>
<path d="M293.965 38.2143H106.034V70.4841H293.965V38.2143Z" stroke="#C4C4C4"/>
<path d="M160.613 62.8413V45.9368H165.457C166.949 45.9368 168.27 46.2619 169.417 46.912C170.564 47.5622 171.448 48.4871 172.069 49.6869C172.697 50.8867 173.015 52.2644 173.024 53.8202V54.8998C173.024 56.4943 172.709 57.8914 172.08 59.0912C171.46 60.2909 170.568 61.212 169.405 61.8543C168.25 62.4968 166.902 62.8258 165.362 62.8413H160.613ZM162.875 47.7713V61.0185H165.256C167.001 61.0185 168.356 60.4844 169.322 59.4163C170.297 58.3481 170.784 56.8272 170.784 54.8535V53.8665C170.784 51.947 170.324 50.457 169.405 49.3966C168.493 48.3285 167.197 47.7867 165.515 47.7713H162.875ZM186.153 55.0276H178.715V61.0185H187.355V62.8413H176.453V45.9368H187.238V47.7713H178.715V53.2048H186.153V55.0276ZM195.228 55.3063C193.288 54.7567 191.872 54.0832 190.984 53.286C190.105 52.4811 189.665 51.4903 189.665 50.3138C189.665 48.9826 190.203 47.8834 191.279 47.0165C192.364 46.1418 193.771 45.7046 195.5 45.7046C196.678 45.7046 197.728 45.929 198.647 46.3779C199.574 46.8269 200.288 47.446 200.791 48.2356C201.302 49.025 201.557 49.8882 201.557 50.8247H199.283C199.283 49.8029 198.953 49.0019 198.293 48.4214C197.633 47.8331 196.702 47.5389 195.5 47.5389C194.384 47.5389 193.512 47.7828 192.883 48.2704C192.262 48.7504 191.952 49.4199 191.952 50.279C191.952 50.9678 192.247 51.5523 192.836 52.0321C193.433 52.5042 194.443 52.9377 195.865 53.3325C197.295 53.7272 198.41 54.1646 199.212 54.6444C200.021 55.1166 200.619 55.6701 201.003 56.3048C201.397 56.9395 201.593 57.6862 201.593 58.5455C201.593 59.9154 201.05 61.0146 199.965 61.8428C198.883 62.6633 197.433 63.0734 195.617 63.0734C194.438 63.0734 193.338 62.8528 192.317 62.4117C191.295 61.9627 190.505 61.3513 189.948 60.5773C189.398 59.8033 189.122 58.9247 189.122 57.9417H191.398C191.398 58.9635 191.779 59.7722 192.541 60.3682C193.31 60.9565 194.336 61.2507 195.617 61.2507C196.812 61.2507 197.728 61.0107 198.364 60.5307C199 60.0509 199.317 59.3969 199.317 58.5687C199.317 57.7404 199.024 57.102 198.434 56.6529C197.845 56.1964 196.776 55.7473 195.228 55.3063ZM206.933 62.8413H204.669V45.9368H206.933V62.8413ZM223.75 60.6237C223.169 61.4442 222.355 62.0595 221.31 62.4697C220.274 62.8722 219.064 63.0734 217.681 63.0734C216.283 63.0734 215.041 62.7523 213.957 62.1098C212.872 61.4596 212.031 60.5386 211.434 59.3466C210.845 58.1547 210.543 56.773 210.526 55.2018V53.7273C210.526 51.1807 211.128 49.2069 212.329 47.8061C213.54 46.4051 215.238 45.7046 217.421 45.7046C219.214 45.7046 220.655 46.1574 221.747 47.063C222.84 47.9608 223.507 49.238 223.75 50.8943H221.488C221.064 48.6575 219.712 47.5389 217.433 47.5389C215.917 47.5389 214.765 48.0653 213.979 49.1179C213.202 50.163 212.809 51.68 212.802 53.6692V55.0508C212.802 56.9471 213.241 58.4565 214.121 59.5788C215.002 60.6935 216.191 61.2507 217.693 61.2507C218.541 61.2507 219.284 61.1578 219.921 60.972C220.557 60.7862 221.083 60.4728 221.5 60.0316V56.2351H217.528V54.4238H223.75V60.6237ZM240.722 62.8413H238.448L229.809 49.8146V62.8413H227.534V45.9368H229.809L238.471 59.0215V45.9368H240.722V62.8413Z" fill="#888888"/>
</svg>
